<svg xmlns="http://www.w3.org/2000/svg" width="28" height="28" fill="none" viewBox="0 0 28 28">
  <g fill="#000">
    <path d="M27.9873 8.21936c-.0452-1.44517-.3165-2.48388-.633-3.43226-.3164-.94839-.8138-1.71613-1.5824-2.48387-.7687-.76775-1.5373-1.21936-2.4416-1.580649-.9043-.361291-1.899-.587097-3.4362-.6322584C18.3116 2e-8 17.8594 0 14.0163 0c-3.8432 0-4.25012 1e-8-5.78739.0451613C6.69164.0903226 5.74215.36129 4.79266.677419 3.84317.993548 3.07454 1.53548 2.3059 2.30323 1.53727 3.07097 1.03992 3.83871.723421 4.7871.36171 5.69032.135641 6.68387.0904276 8.21936.0452138 9.75484 0 10.1613 0 14c0 3.8387 1e-8 4.2452.0452138 5.7806.0452138 1.5355.3164962 2.4839.6329932 3.4323.316496.9484.813853 1.7161 1.582483 2.4839.76863.7677 1.58248 1.2645 2.48676 1.5806.90427.3161 1.89898.5871 3.43625.6323C9.72097 28 10.1279 28 13.9711 28c3.8431 0 4.2501 0 5.7873-.0452 1.5373-.0451 2.4868-.3161 3.4363-.6322s1.7181-.8129 2.4867-1.5807c.7687-.7677 1.266-1.5806 1.5825-2.4838.3165-.9033.5878-1.8968.633-3.4323.0452-1.4452.0452-1.8968.0452-5.7355 0-3.8387.0905-4.33546.0452-5.87094ZM25.4554 19.6452c-.0452 1.3548-.3165 2.0774-.4974 2.6193-.2713.6323-.5878 1.129-1.0851 1.5807-.4974.4967-.9495.7677-1.5825 1.0838-.4974.1807-1.2208.4516-2.6224.4968h-5.6065c-3.7075 0-4.20489 0-5.65173-.0452-1.35642-.0451-2.07984-.3161-2.6224-.4967-.633-.271-1.13035-.5871-1.58249-1.0839-.49735-.4968-.76863-.9484-1.08513-1.5806C2.9389 21.7226 2.66761 21 2.6224 19.6V14c0-3.7484 0-4.2.04521-5.64516.04522-1.35484.3165-2.07742.49736-2.61936.27128-.63225.58778-1.12903 1.03991-1.58064.49735-.49678.94949-.76774 1.58249-1.03871.49735-.18065 1.22077-.45161 2.6224-.49678 1.44684-.04516 1.89893-.04516 5.65173-.04516 3.7527 0 4.2049 0 5.6517.04516 1.3564.04517 2.0798.31613 2.6224.49678.633.27097 1.1304.5871 1.5825 1.03871.4973.49677.7686.94839 1.0851 1.58064.1809.49678.4522 1.21936.4974 2.61936.0452 1.44516.0452 1.89676.0452 5.64516 0 3.7484-.0452 4.2-.0904 5.6452Z"></path>
    <path d="M14.017 6.81917c-4.02403 0-7.18899 3.25163-7.18899 7.18063 0 4.0194 3.25539 7.1807 7.18899 7.1807 3.9336 0 7.2342-3.1613 7.2342-7.1807 0-4.01934-3.2102-7.18063-7.2342-7.18063Zm0 11.87743c-2.6224 0-4.70223-2.1226-4.70223-4.6968S11.4398 9.30305 14.017 9.30305c2.6224 0 4.7022 2.07745 4.7022 4.69675 0 2.6194-2.0798 4.6968-4.7022 4.6968ZM21.567 8.17428c.9239 0 1.6729-.74814 1.6729-1.67096 0-.92287-.749-1.67097-1.6729-1.67097-.924 0-1.6729.7481-1.6729 1.67097 0 .92282.7489 1.67096 1.6729 1.67096Z"></path>
  </g>
</svg>