<svg xmlns="http://www.w3.org/2000/svg" width="28" height="28" fill="none" viewBox="0 0 28 28">
  <path fill="#000" d="M26.0428 0H2.04168C.907414 0 0 .903226 0 2.03226V25.9677C0 27.0516.907414 28 2.04168 28H25.9521c1.1342 0 2.0416-.9032 2.0416-2.0323V1.9871C28.0845.903226 27.1771 0 26.0428 0ZM8.30286 23.8H4.17412V10.4774h4.12874V23.8ZM6.2158 8.62581c-1.36112 0-2.40466-1.08387-2.40466-2.39355S4.90005 3.83871 6.2158 3.83871c1.31575 0 2.40465 1.08387 2.40465 2.39355S7.6223 8.62581 6.2158 8.62581ZM19.827 23.8v-6.4581c0-1.5354-.0454-3.5677-2.1778-3.5677-2.1778 0-2.4954 1.7161-2.4954 3.4322V23.8h-4.1287V10.4774h4.038v1.8516h.0454c.5898-1.0838 1.9055-2.1677 3.9472-2.1677 4.2195 0 4.9908 2.7097 4.9908 6.4129V23.8H19.827Z"></path>
</svg>