<svg xmlns="http://www.w3.org/2000/svg" viewBox="0 0 256 256">
  <rect width="256" height="256" rx="56" fill="#7da48a"/>
  <g fill="#f8faf0" transform="translate(0,4)">
    <path d="m198.3 50h-63.97c9.06 5.74 16.16 12.23 20.34 17.01h43.4c17.49 0 30.81 13.46 30.81 28.55 0 13.09-9.65 27.11-26.1 29.03-14.49 1.77-21.86 14.32-21.86 25.27 0 5.83 1.92 10.79 6 16.15 12.08 17.58 26.91 38.54 51.9 38.98 6.1 0.23 8.19-4.98 8.18-7.93 0.02-4.8-3.17-8.17-8.23-8.4-14.58-0.42-26.18-12.74-38.69-30.92-1.96-2.95-3.24-4.7-3.15-7.87 0.16-3.97 2.5-8.24 6.86-8.56 24.48-2.44 41.98-22.54 41.98-45.22 0-24.95-20.5-46.09-47.47-46.09z"/>
    <path d="m154.4 92.18c-12.75-25.03-38.61-42.17-67.76-42.17-41.74 0-77.35 32.88-77.62 77.79-0.17 40.68 31.78 77.19 76.99 77.19 13.89 0 31.19-4.77 44.26-15.48 15.53-13.03 25.81-28.8 31.27-49.12 6.46-24.75 23.42-35.2 38.09-35.97 6.04 0 8.58-5.04 8.58-8.5 0-5.04-3.87-7.59-8.14-7.51-23.36 0.55-40.04 16.35-49.76 35.69-4.1 9.02-4.12 20.01-10.98 32.81-11.5 20-28.83 32-52.53 31.75-33.63 0-61.87-27.82-61.87-60.53 0-33.34 27.27-61.12 61.36-61.12 25.49 0 47.71 16.6 57.15 40.08 3.31-6.66 7.17-10.62 10.96-14.91z"/>
  </g>
</svg>
