<svg xmlns="http://www.w3.org/2000/svg" width="250" height="250" viewBox="0 0 250 250">
<!-- SVG created with Arrow, by QuiverAI (https://quiver.ai) -->
  <path d="m132.9 76.38c2.16-4.42 4.72-7.41 8.36-9.86-8.38-17.45-24.39-26.31-42.31-26.31-27.1 0-49.74 22.41-49.74 49.75 0 26.03 21.33 48.74 49.38 48.74 23.67 0 41.09-16.71 46.48-36.07 3.78-13.42 8.65-26.52 25.37-28.27 4.74-0.48 5.22-3.65 5.06-5.47-0.33-3.16-2.56-5.14-6.34-4.93-13.15 0.73-28 10.82-33.71 31.24-1.93 6.92-4.01 13.16-10.16 20.05-7.67 8.7-17.29 12.82-27.39 12.64-20.32-0.38-37.45-17-37.45-37.93 0-21.33 17.12-39.24 38.34-39.24 15.33 0 28.11 10.15 34.11 25.66z" fill="#7DA48A"/>
  <path d="m128.7 40.4c6.73 3.75 10.66 8.41 13.83 10.06l26.56-0.05c11.18 0 19.22 8.38 19.22 18.81 0 9.39-7.58 17.56-16.94 18.52-9.63 0.97-13.7 9.37-13.38 16.31 0.16 4.23 1.62 6.87 7.45 14.72 8.48 11.15 16.96 19.54 29.49 20.15 4.27 0.21 5.23-2.97 5.1-5.33-0.16-2.87-1.85-4.85-5.26-5.01-10.26-0.81-16.83-9.81-24.57-20.81-3.01-4.24-1.44-8.48 3.4-9.13 14.3-1.97 25.48-14.15 25.48-28.63 0-16-12.27-29.62-28.88-29.62h-41.5v0.01z" fill="#7DA48A"/>
  <path d="m27.29 157.6c-11.75 0-19.87 9.46-19.87 19.78v0.11c0 10.48 7.96 19.94 19.76 19.94s19.87-9.57 19.87-19.83v-0.11c0.01-10.43-7.9-19.89-19.76-19.89zm12.93 19.89c0 8.07-5.94 14.05-12.98 14.05-7.53 0-13.25-5.88-13.25-14.05v-0.11c0-8.07 5.93-13.9 12.98-13.9 7.64 0 13.25 6.28 13.25 13.9v0.11z" fill="#7DA48A"/>
  <path d="m65.8 168.4c-8.38 0-12.82 5.11-12.82 11.78v16.05c0 0.85 0.43 0.65 1.18 0.65h4.06c0.74 0 1.17-0.16 1.17-0.85v-15.22c0-4.5 2.66-6.9 6.42-6.9 4.21 0 7.03 2.45 7.03 7.33v15c0 0.8 0.27 0.65 1.01 0.65h4.22c0.85 0 1.12-0.11 1.12-0.85v-15.46c-0.01-7.34-5.16-12.18-13.39-12.18z" fill="#7DA48A"/>
  <path d="m100.1 181.5 11.02-10.48c0.95-0.9 0.42-1.75-2.13-2.29-2.08-0.48-3.34-0.1-4.4 0.86l-12.17 10v-21.67c0-1.65-1.37-2.19-3.1-2.19-2.08 0-3.24 0.8-3.24 2.44v37.62c0 1.06 0.37 1.08 1.58 1.08h3.02c1.26 0 1.79-0.11 1.79-1.23v-12.02l11.8 12.33c1.06 1.12 2 0.81 3.42 0.81h4.94c1.16 0 0.73-0.64 0.15-1.34l-12.68-13.92z" fill="#7DA48A"/>
  <path d="m128.3 168.4c-9.32 0-14.93 6.83-14.93 14.56v0.11c0 7.57 5.67 14.28 14.82 14.28 8.84 0 15.09-6.82 15.09-14.44v-0.11c0-7.69-5.99-14.4-14.98-14.4zm8.25 14.55c0 5.88-3.82 8.82-8.25 8.82-5.16 0-8.41-4.24-8.41-8.93v-0.11c0-5.51 3.56-8.96 8.3-8.96 5.61 0.01 8.36 4.6 8.36 9.07v0.11z" fill="#7DA48A"/>
  <path d="m171.9 181.1c5.21-2.14 6.58-6.37 6.58-10.5v-0.11c0-6.57-5.67-12.08-14.51-12.08h-11.75c-2.55 0-4.02 0.97-4.02 3.96v33.62c0 0.85 0.42 0.86 1.17 0.86h4.32c0.75 0 1.33-0.11 1.33-0.86v-13.45h10.43l6.99 13.17c0.53 1.02 1.07 1.13 2.02 1.13h4.79c0.95 0 0.89-0.8 0.52-1.5l-7.87-14.24zm-7.72-4.21h-8.53c-0.37 0-0.37-0.26-0.37-0.79v-11.01c0-0.7 0.21-1.11 0.96-1.17l7.73-0.05c5.21 0 7.51 3.62 7.51 6.61 0 3.56-2.45 6.41-7.3 6.41z" fill="#7DA48A"/>
  <path d="m195 168.5c-6.04 0-9.81 1.17-9.81 5.03 0 1.93 0.74 2.89 1.33 2.89 1.31-1.22 3.39-2.68 8.34-2.68 5.88 0 8.07 2.09 8.07 6.22v0.53c-1.87-0.59-4.58-0.8-7.77-0.8-7.86 0-11.83 3.45-11.83 9.07v0.11c0 6.09 4.69 8.54 12.81 8.54 3.77 0 8.98-0.53 12.8-1.17 0.48-0.11 0.43-0.64 0.43-1.02v-15.73c0-6.72-4.58-10.99-14.37-10.99zm7.77 23.63c-2.14 0.43-4.11 0.54-5.98 0.54-4.85 0-7.4-1.32-7.4-4.5v-0.11c0-2.94 2.03-4.31 7.08-4.31 2.19 0 4.49 0.21 6.3 0.69v7.69z" fill="#7DA48A"/>
  <path d="m240 168.6c-2.08 0-3.34 0.48-3.34 2.07v13.12c0 5.16-2.4 7.56-7.03 7.56-4.27 0-7.67-2.19-7.67-8.13v-12.83c0-1.47-1.31-1.79-3.04-1.79-1.98 0-3.56 0.32-3.56 1.74v13.88c0 8.44 4.74 12.57 12.37 12.57 4.06 0 7.08-1.01 8.65-2.71v1.7c0 5.62-3.76 7.97-9.69 7.97-2.97 0-5.11-0.8-6.68-1.64-1.01-0.48-2.79 4.57-3.95 5 2.97 1.52 5.99 1.84 10.62 1.84 10.43 0 16.04-5.57 16.04-14.17v-24.39c0.01-1.36-1-1.79-2.72-1.79z" fill="#7DA48A"/>
</svg>