<svg xmlns="http://www.w3.org/2000/svg" fill="none" viewBox="0 0 150 61">
  <path stroke="#fff" stroke-width="2" d="M1.19 1.5h147.4v57.82H1.19z"/>
  <path fill="#fff" d="M45.79 19.4v-5.86c0-2.71.59-4.7 1.77-5.95a6.27 6.27 0 0 1 4.78-1.9c2.03 0 3.63.63 4.8 1.88 1.19 1.26 1.78 3.25 1.78 5.97v5.86c0 2.72-.6 4.74-1.79 6.06a6.17 6.17 0 0 1-4.8 1.96 6.13 6.13 0 0 1-4.75-1.96c-1.2-1.31-1.8-3.33-1.8-6.06Zm4.86 1.44c0 1.16.15 1.95.44 2.39.3.43.72.64 1.26.64s.95-.21 1.26-.64c.3-.44.46-1.23.46-2.39v-8.56c0-1.1-.15-1.87-.45-2.3-.3-.44-.72-.66-1.27-.66-.54 0-.96.22-1.26.66-.3.43-.44 1.2-.44 2.3v8.56ZM32.7 10.03V5.96h11.9v4.07H41v17.13h-4.7V10.03h-3.6ZM18.82 27.16l4.23-21.2h5.68l4.11 21.2h-4.57l-2.14-12.29-.2-1.54c-.06-.64-.11-1.07-.15-1.29h-.05l-.13 1.29c-.06.63-.11 1.14-.17 1.54l-2 12.3h-4.61Zm3.07-4.22.45-3.28h7.05l.48 3.28h-7.98ZM5.39 27.16V5.96h6.1c2.02 0 3.55.7 4.6 2.1 1.05 1.4 1.58 3.39 1.58 5.98v5.21c0 2.5-.58 4.44-1.72 5.83a5.64 5.64 0 0 1-4.6 2.08H5.39Zm4.5-3.5h.95c.68 0 1.19-.27 1.54-.8a4.7 4.7 0 0 0 .52-2.48v-7.5c0-1.16-.18-2-.55-2.5-.36-.5-.86-.75-1.5-.75h-.96v14.04ZM65.59 6.06h2v21h-2zM131.27 19.4v-5.86c0-2.71.59-4.7 1.77-5.95a6.27 6.27 0 0 1 4.78-1.9c2.03 0 3.63.63 4.8 1.88 1.2 1.26 1.78 3.25 1.78 5.97v5.86c0 2.72-.6 4.74-1.79 6.06a6.17 6.17 0 0 1-4.79 1.96 6.13 6.13 0 0 1-4.76-1.96c-1.2-1.31-1.8-3.33-1.8-6.06Zm4.86 1.44c0 1.16.15 1.95.44 2.39.3.43.72.64 1.27.64.53 0 .95-.21 1.25-.64.3-.44.46-1.23.46-2.39v-8.56c0-1.1-.15-1.87-.45-2.3-.3-.44-.72-.66-1.26-.66-.55 0-.97.22-1.27.66-.3.43-.44 1.2-.44 2.3v8.56ZM117.2 27.16V5.96h6.83a4.8 4.8 0 0 1 3.74 1.54c.94 1.02 1.42 2.73 1.42 5.13 0 2.35-.51 4.1-1.52 5.24a4.83 4.83 0 0 1-3.76 1.7h-2.06v7.6h-4.65Zm4.64-10.92h1.17c.55 0 .95-.25 1.18-.74.23-.5.35-1.36.35-2.57 0-1.35-.12-2.24-.35-2.68-.23-.43-.63-.65-1.18-.65h-1.17v6.64Zm3.12 10.92-2.47-9.4 4.02-1.08 3.39 10.48h-4.94ZM103.28 10.03V5.96h11.88v4.07h-3.58v17.13h-4.7V10.03h-3.6ZM89.66 22.06V20.1H94v1.7c0 .8.12 1.38.4 1.7.27.34.66.5 1.19.5.5 0 .88-.16 1.13-.48.27-.32.4-.92.4-1.8 0-.79-.2-1.41-.6-1.87-.4-.47-1.09-1.02-2.07-1.66-1.62-.9-2.8-1.9-3.54-3a6.8 6.8 0 0 1-1.1-3.89c0-1.9.52-3.3 1.56-4.2a6.23 6.23 0 0 1 4.26-1.4c1.8 0 3.18.44 4.15 1.3a4.63 4.63 0 0 1 1.47 3.68v1.85h-4.18v-1.5c0-.6-.1-1.05-.33-1.34-.22-.3-.56-.44-1-.44-.5 0-.84.13-1.04.4-.2.25-.3.74-.3 1.45 0 .58.22 1.09.66 1.53.46.43 1.12.91 1.98 1.42a9 9 0 0 1 3.53 2.9c.7 1.07 1.06 2.53 1.06 4.37 0 2-.5 3.5-1.53 4.55-1 1.02-2.48 1.54-4.42 1.54-1.95 0-3.44-.43-4.48-1.28-1.02-.87-1.54-2.22-1.54-4.07ZM74.27 27.16l4.24-21.2h5.68l4.1 21.2h-4.57l-2.14-12.29c-.06-.4-.12-.91-.19-1.54-.07-.64-.12-1.07-.16-1.29h-.04c-.03.22-.08.65-.13 1.29-.06.63-.12 1.14-.18 1.54l-2 12.3h-4.61Zm3.07-4.22.45-3.28h7.05l.48 3.28h-7.98Z"/>
  <path fill="#FBE" d="M134.24 54.87V33.66h10v4.08h-5.58v4.4h4.84V46h-4.84v4.84h5.74v4.02h-10.16ZM120.31 37.74v-4.08h11.89v4.08h-3.58v17.13h-4.7V37.73h-3.6ZM106.42 54.87l4.24-21.21h5.68l4.1 21.2h-4.56l-2.15-12.29-.19-1.54c-.06-.64-.12-1.07-.16-1.28h-.04l-.13 1.28-.17 1.54-2 12.3h-4.62Zm3.08-4.23.45-3.28H117l.48 3.28h-7.98ZM95.36 54.87V33.66h4.66v17.13h5.02v4.08h-9.68ZM81.06 54.87V33.66h6.86c1.72 0 3.03.6 3.93 1.82.9 1.2 1.34 3.05 1.34 5.53 0 2.49-.47 4.34-1.4 5.54a4.74 4.74 0 0 1-4 1.8H85.7v6.52h-4.64Zm4.64-9.98H87c.58 0 .99-.23 1.22-.7.23-.48.35-1.5.35-3.07 0-1.45-.11-2.44-.33-2.96-.23-.52-.64-.79-1.24-.79h-1.3v7.52ZM66.67 54.87V33.66h6.83a4.8 4.8 0 0 1 3.74 1.54c.94 1.02 1.41 2.73 1.41 5.13 0 2.35-.5 4.1-1.51 5.24a4.83 4.83 0 0 1-3.76 1.7h-2.07v7.6h-4.64Zm4.64-10.93h1.17c.55 0 .94-.25 1.18-.74.23-.5.35-1.36.35-2.56 0-1.35-.12-2.25-.35-2.68-.24-.44-.63-.66-1.18-.66H71.3v6.64Zm3.12 10.93-2.48-9.4 4.02-1.1 3.4 10.5h-4.94ZM54.58 54.87V33.66h10v4.08h-5.57v4.4h4.83V46h-4.83v4.84h5.74v4.02H54.58ZM42.73 54.87V33.66h4.66v17.13h5.02v4.08h-9.68ZM35.18 54.87V33.66h4.7v21.2h-4.7ZM19.43 47.1v-5.85c0-2.72.59-4.7 1.77-5.96a6.27 6.27 0 0 1 4.78-1.9c2.03 0 3.63.63 4.8 1.89 1.2 1.25 1.78 3.24 1.78 5.97v5.85c0 2.72-.6 4.74-1.79 6.06a6.17 6.17 0 0 1-4.79 1.97 6.13 6.13 0 0 1-4.76-1.97c-1.2-1.31-1.8-3.33-1.8-6.06Zm4.86 1.44c0 1.16.15 1.96.44 2.4.3.42.72.63 1.27.63.53 0 .95-.21 1.25-.64.3-.43.46-1.23.46-2.39v-8.56c0-1.1-.15-1.86-.45-2.3-.3-.44-.72-.66-1.27-.66-.54 0-.96.22-1.26.66-.3.44-.44 1.2-.44 2.3v8.56ZM5.39 54.87V33.66h6.48c1.61 0 2.83.45 3.67 1.34.83.9 1.25 2.23 1.25 4.02 0 1.46-.21 2.54-.64 3.25a3.2 3.2 0 0 1-1.64 1.41v.03c.81.21 1.5.7 2.06 1.47.57.77.85 1.98.85 3.64 0 2.06-.5 3.58-1.49 4.57a5.45 5.45 0 0 1-4.03 1.48H5.39Zm4.5-3.41h1.28c.54 0 .93-.22 1.17-.66.24-.44.36-1.25.36-2.4 0-1.14-.13-1.91-.4-2.33a1.2 1.2 0 0 0-1.11-.63h-1.3v6.02Zm0-8.7H11c.51 0 .88-.18 1.1-.55.24-.37.36-1.11.36-2.23 0-1.14-.12-1.89-.34-2.23-.21-.35-.57-.52-1.06-.52H9.89v5.53Z"/>
</svg>